<svg width="382" height="378" viewBox="0 0 382 378" fill="none" xmlns="http://www.w3.org/2000/svg">
<path d="M169.824 269.002C169.824 269.002 84.9933 267.135 34.9338 141.583L20.0518 144.445C20.0518 144.445 36.7009 292.603 161.278 334.899L169.824 269.002Z" fill="#FFCCC3"/>
<path d="M46.876 143.508C37.6503 148.834 26.2233 132.882 33.1612 125.551C41.4764 117.158 41.4578 132.827 48.2393 129.16C55.0185 125.495 48.6338 113.423 43.6335 111.507C35.7221 108.506 34.6762 108.95 29.2954 113.978C28.2215 99.6197 22.6119 79.7804 17.5158 87.6304C13.5636 93.7195 19.5001 110.209 21.1435 117.589C19.4768 114.661 11.5957 95.7855 6.66072 101.136C3.48122 105.358 14.0399 125.66 15.7043 128.59C15.7277 128.624 15.7463 128.668 15.7697 128.704C14.4087 127.648 13.2905 126.834 12.7046 126.408C8.80373 124.09 0.404437 115.923 0.00291478 123.879C-0.228194 131.928 13.3419 139.962 20.0534 144.445C20.9544 147.759 22.3014 150.58 24.9347 151.966C32.8274 145.673 34.4031 152.661 42.1838 154.877C48.8276 157.299 54.2295 154.696 56.188 147.87C59.7714 132.257 40.7458 128.055 46.876 143.508Z" fill="#FFCCC3"/>
<path d="M314.043 228.686C319.368 230.483 359.48 305.729 381.998 377.999L135.569 375.685C135.569 375.685 145.737 301.88 177.516 244.093L314.043 228.686Z" fill="white"/>
<path d="M347.367 289.232C345.78 285.785 344.211 282.443 342.663 279.205C313.684 279.231 284.723 279.486 255.722 278.442C225.246 277.344 194.59 273.598 164.049 272.277C162.784 275.32 161.577 278.362 160.41 281.401C190.867 286.294 222.585 286.955 252.977 288.302C284.284 289.69 315.941 290.511 347.367 289.232Z" fill="#00CEF1"/>
<path d="M364.211 328.364C363.121 325.647 362.023 322.953 360.924 320.284C325.928 320.255 290.931 319.461 255.968 317.814C232.637 316.709 209.321 315.232 186.028 313.505C174.725 312.669 162.621 310.792 150.612 310.036C149.788 312.761 149.004 315.437 148.255 318.075C220.305 323.329 291.962 328.112 364.211 328.364Z" fill="#00CEF1"/>
<path d="M260.75 348.183C220.754 349.217 180.231 348.752 140.095 351.019C139.467 353.976 138.909 356.725 138.421 359.232C179.171 359.525 220.191 356.924 260.75 355.89C298.495 354.926 336.266 353.758 374.019 354.226C373.104 351.666 372.175 349.115 371.232 346.572C334.411 346.066 297.573 347.231 260.75 348.183Z" fill="#00CEF1"/>
<path d="M328.688 6.05082C334.034 -0.00440598 343.754 -2.21577 350.104 2.68653C354.219 5.86432 356.386 11.3625 360.831 14.0243C364.636 16.3011 369.386 16.054 373.458 17.7665C379.263 20.2103 383.106 27.1763 381.714 33.5125C380.72 38.0418 377.365 41.7572 373.38 43.8742C369.393 45.9911 364.829 46.6692 360.352 46.7201C348.642 46.8509 338.121 41.0839 328.849 33.6844C320.015 26.6337 321.502 14.1866 328.688 6.05082Z" fill="#004B7F"/>
<path d="M314.043 25.8308C314.043 25.8308 320.386 16.9175 324.275 18.4337C328.162 19.9475 337.348 37.0838 337.348 39.2419C337.348 43.6913 328.85 46.7213 328.85 46.7213L314.043 25.8308Z" fill="#00CEF1"/>
<path d="M191.315 132.341C191.315 132.341 161.652 104.601 151.105 115.544C140.555 126.49 161.453 148.381 191.315 139.78V132.341Z" fill="#FFCCC3"/>
<path d="M179.667 79.301C179.667 79.301 184.871 18.6066 269.431 10.7906C353.991 2.97223 354.745 127.364 354.745 127.364C354.745 127.364 352.483 178.869 318.578 181.996L255.287 89.2072L179.667 79.301Z" fill="#004B7F"/>
<path d="M173.366 146.951C173.366 146.951 157.307 33.7533 243.077 39.45C328.849 45.1443 328.849 125.254 328.849 125.254C328.849 125.254 263.531 217.433 173.366 146.951Z" fill="#FFCCC3"/>
<path d="M328.85 132.341C328.85 132.341 358.511 104.601 369.06 115.544C379.61 126.49 358.712 148.381 328.85 139.78V132.341Z" fill="#FFCCC3"/>
<path d="M173.366 146.951C173.366 146.951 197.394 167.306 224.436 159.393C251.478 151.477 280.028 186.074 328.848 125.254H337.322C337.322 125.254 341.158 293.197 254.023 316.219C166.888 339.238 89.9262 296.074 151.635 207.592C151.635 207.592 173.84 183.306 173.366 146.951Z" fill="#004B7F"/>
<path d="M198.284 51.5027C203.202 48.9377 209.134 49.4561 214.38 51.1903C219.625 52.9221 224.457 55.7753 229.584 57.851C240.205 62.1502 252.09 63.0125 263.183 60.2901C270.511 58.4905 277.65 55.1528 285.181 55.349C291.789 55.5186 298.015 58.4033 304.036 61.2371C310.78 64.4125 317.526 67.5878 324.275 70.7632C313.096 53.283 296.192 39.8186 277.029 33.1288C257.863 26.439 236.559 26.5649 217.468 33.48C209.512 36.3598 201.638 40.6493 196.769 47.78" fill="#004B7F"/>
<path d="M234.527 158.527V115.908L223.973 139.179L219.775 152.193L220.41 163.804L224.608 167.103L229.82 164.596L234.527 158.527Z" fill="#FFCCC3"/>
<path d="M237.705 111.151C234.385 118.238 231.17 125.379 228.409 132.686C226.378 138.058 223.404 143.014 221.753 148.548C220.222 153.686 219.265 161.56 224.655 164.701C224.942 164.868 225.26 165.019 225.589 164.982C225.888 164.946 227.748 164.12 227.991 163.936C230.195 162.27 231.712 159.966 233.701 158.07C234.233 157.561 235.181 157.12 235.571 157.752C235.804 158.13 235.622 158.622 235.426 159.022C234.018 161.877 232.015 164.418 229.592 166.411C227.919 167.789 225.841 168.952 223.733 168.586C221.662 168.228 220.04 166.431 219.237 164.418C216.249 156.912 219.844 148.386 222.216 141.287C225.79 130.579 230.883 120.406 235.877 110.26C236.458 109.08 238.26 109.967 237.705 111.151Z" fill="#D46C6C"/>
<path d="M264.211 118.888C264.953 120.966 263.789 123.233 261.608 123.95C259.428 124.667 258.202 123.184 257.455 121.106C256.713 119.028 257.724 116.812 259.902 116.095C262.084 115.378 263.469 116.809 264.211 118.888Z" fill="#303030"/>
<path d="M216.715 122.401C215.237 124.027 212.63 124.114 210.893 122.595C209.154 121.076 209.856 119.324 211.334 117.698C212.812 116.073 215.293 115.877 217.032 117.396C218.769 118.915 218.193 120.775 216.715 122.401Z" fill="#303030"/>
<path d="M273.591 106.522C270.967 105.631 268.638 104.568 266.203 103.243C263.922 102 261.009 101.051 260.598 98.212C260.425 97.0349 260.75 95.429 262.05 94.9446C265.157 93.7844 266.976 95.3491 269.581 96.9864C272.037 98.5317 274.217 100.128 276.369 102.07C278.452 103.945 276.136 107.384 273.591 106.522Z" fill="#004B7F"/>
<path d="M212.178 95.6136C215.771 94.6737 219.536 94.0197 223.243 94.5187C226.909 95.0153 227.004 101.231 223.288 101.805C219.571 102.377 215.813 101.829 212.211 100.957C209.54 100.306 209.452 96.3282 212.178 95.6136Z" fill="#004B7F"/>
<path d="M246.003 194.647C250.62 191.949 253.933 186.981 254.066 181.732C254.087 180.955 254.035 180.16 253.744 179.436C252.852 177.21 249.974 176.387 247.548 176.743C245.125 177.099 242.914 178.303 240.554 178.964C237.788 179.734 234.814 179.737 232.061 178.966C230.441 178.513 228.896 177.799 227.234 177.508C225.574 177.22 223.688 177.436 222.479 178.603C221.302 179.741 221.031 181.5 221.092 183.113C221.566 196.2 235.603 200.726 246.003 194.647Z" fill="#A04340"/>
<path d="M276.767 142.824C276.37 145.421 271.86 146.83 266.699 145.975C261.533 145.12 257.664 142.321 258.061 139.724C258.46 137.128 265.307 136.105 270.473 136.963C275.639 137.818 277.166 140.228 276.767 142.824Z" fill="#FFB0A0"/>
<path d="M193.116 140.191C193.478 137.587 197.97 136.112 203.145 136.892C208.321 137.674 212.224 140.416 211.862 143.02C211.5 145.621 204.667 146.745 199.489 145.963C194.314 145.183 192.755 142.792 193.116 140.191Z" fill="#FFB0A0"/>
<path d="M216.076 46.8005C222.998 40.612 229.259 33.2561 237.177 28.3974C245.735 23.1463 255.36 21.4775 264.759 18.6824C265.232 18.542 265.025 17.8638 264.562 17.9364C243.667 21.1505 229.912 30.7808 215.257 45.9479C214.72 46.5026 215.516 47.3018 216.076 46.8005Z" fill="#006696"/>
<path d="M236.66 49.2618C254.21 32.3023 273.588 23.6845 296.821 18.7895C297.15 18.7193 297.077 18.167 296.741 18.1816C273.799 19.1867 251.53 31.411 235.922 48.4964C235.458 49.0026 236.167 49.7365 236.66 49.2618Z" fill="#006696"/>
<path d="M260.998 55.8149C276.317 43.421 292.66 36.7555 310.874 30.3805C311.411 30.1916 311.184 29.4311 310.645 29.5183C292.112 32.4732 274.625 42.9584 260.293 55.0858C259.794 55.5097 260.504 56.217 260.998 55.8149Z" fill="#006696"/>
<path d="M298.413 53.3797C305.587 49.7611 314.325 44.544 318.847 37.4811C319.199 36.9265 318.466 36.1006 317.927 36.5268C314.736 39.0531 312.065 42.2381 308.881 44.8104C305.391 47.637 301.653 50.0445 297.72 52.1469C296.926 52.5708 297.622 53.7794 298.413 53.3797Z" fill="#006696"/>
<path d="M319.231 67.4972C324.661 64.0045 330.661 57.7507 331.406 50.8163C331.476 50.1623 330.53 49.9613 330.248 50.4917C328.782 53.2335 327.888 56.1763 326.12 58.7752C324.064 61.798 321.575 64.3412 318.629 66.429C318.004 66.8723 318.573 67.921 319.231 67.4972Z" fill="#006696"/>
<path d="M329.276 86.5836C333.422 81.7152 338.504 75.3742 339.774 68.8636C339.889 68.2751 339.179 67.9626 338.852 68.4592C337.101 71.1017 336.014 74.2116 334.431 76.9776C332.668 80.061 330.63 82.9384 328.396 85.6729C327.883 86.2978 328.742 87.211 329.276 86.5836Z" fill="#006696"/>
<path d="M339.916 109.18C343.277 104.322 346.165 98.3513 346.644 92.3034C346.688 91.7027 345.799 91.6058 345.649 92.1629C344.064 98.1406 342.465 103.469 338.987 108.616C338.588 109.21 339.517 109.759 339.916 109.18Z" fill="#006696"/>
<path d="M179.463 172.498C179.405 173.988 179.347 175.475 179.328 176.967C179.309 178.306 179.153 179.684 179.538 180.978C179.732 181.632 180.622 181.632 180.818 180.978C181.198 179.689 181.044 178.301 181.026 176.967C181.007 175.475 180.949 173.988 180.89 172.498C180.853 171.546 179.503 171.546 179.463 172.498Z" fill="#006696"/>
<path d="M179.393 198.08C179.166 201.098 177.969 203.452 176.981 206.228C176.783 206.787 177.537 207.17 177.91 206.787C180.044 204.586 180.768 201.086 180.95 198.08C181.013 197.036 179.47 197.051 179.393 198.08Z" fill="#006696"/>
<path d="M195.047 200.845C194.905 203.274 194.186 206.261 194.849 208.639C195.033 209.308 195.971 209.31 196.158 208.639C196.819 206.256 196.1 203.274 195.96 200.845C195.922 200.237 195.082 200.237 195.047 200.845Z" fill="#006696"/>
<path d="M243.916 211.231C244.156 213.123 244.18 215.323 245.121 217.009C245.338 217.399 245.996 217.35 246.089 216.878C246.47 214.967 245.844 212.885 245.494 211.01C245.326 210.099 243.797 210.293 243.916 211.231Z" fill="#006696"/>
<path d="M261.452 202.918C261.443 204.306 261.207 205.884 261.636 207.211C261.802 207.725 262.477 207.725 262.645 207.211C263.075 205.888 262.839 204.304 262.83 202.918C262.823 202 261.459 201.997 261.452 202.918Z" fill="#006696"/>
<path d="M267.988 178.954C268.492 180.851 268.976 182.712 269.849 184.47C270.07 184.916 270.778 184.71 270.759 184.216C270.677 182.234 270.21 180.364 269.746 178.45C269.459 177.273 267.673 177.777 267.988 178.954Z" fill="#006696"/>
<path d="M288.562 182.612C287.582 185.163 286.935 189.026 288.128 191.593C288.436 192.255 289.491 192.085 289.643 191.39C289.935 190.043 289.739 188.646 289.793 187.275C289.853 185.788 290.068 184.325 290.238 182.847C290.362 181.774 288.887 181.769 288.562 182.612Z" fill="#006696"/>
<path d="M306.03 174.558C306.142 177.235 305.883 180.548 306.875 183.06C307.127 183.694 308.096 183.859 308.282 183.06C308.903 180.405 308.187 177.235 307.902 174.558C307.774 173.345 305.976 173.284 306.03 174.558Z" fill="#006696"/>
<path d="M324.174 156.867C325.066 158.105 325.829 159.34 326.189 160.863C326.516 162.246 326.362 163.668 326.618 165.066C326.751 165.78 327.627 165.724 327.965 165.247C330.069 162.285 327.954 157.504 325.444 155.549C324.714 154.982 323.63 156.111 324.174 156.867Z" fill="#006696"/>
<path d="M159.497 218.106C158.297 219.588 157.328 221.194 156.651 223.003C156.07 224.551 155.321 226.67 156.103 228.237C156.409 228.848 157.191 228.729 157.52 228.237C158.278 227.109 158.185 225.464 158.573 224.149C159.063 222.48 159.861 220.932 160.891 219.554C161.649 218.537 160.326 217.084 159.497 218.106Z" fill="#006696"/>
<path d="M196.753 174.601C196.335 175.648 195.842 176.658 195.28 177.627C194.785 178.475 194.157 179.196 193.937 180.173C193.744 181.028 194.645 181.861 195.422 181.357C197.226 180.185 198.142 177.188 198.814 175.192C199.278 173.816 197.266 173.32 196.753 174.601Z" fill="#006696"/>
<path d="M243.317 166.346C243.182 167.725 242.722 169.408 243.187 170.736C243.434 171.441 244.452 171.729 244.837 170.961C245.512 169.612 245.281 167.836 245.323 166.346C245.362 164.984 243.446 165.04 243.317 166.346Z" fill="#006696"/>
<path d="M254.925 167.728C254.902 169.109 254.701 170.522 255.245 171.808C255.513 172.443 256.592 172.443 256.86 171.808C257.402 170.527 257.204 169.102 257.18 167.728C257.152 166.221 254.953 166.218 254.925 167.728Z" fill="#006696"/>
<path d="M216.254 169.209C215.211 170.345 213.742 171.741 213.969 173.417C214.022 173.824 214.587 174.149 214.947 173.994C216.27 173.425 216.812 171.818 217.697 170.704C218.514 169.674 217.176 168.203 216.254 169.209Z" fill="#006696"/>
<path d="M209.158 185.132C208.455 186.418 207.171 187.892 207.493 189.428C207.568 189.777 207.997 190.048 208.331 189.92C209.755 189.365 210.234 187.511 210.904 186.191C211.506 184.998 209.802 183.952 209.158 185.132Z" fill="#006696"/>
<path d="M232.202 171.136C231.791 171.805 231.63 172.517 231.49 173.293C231.392 173.84 231.574 174.225 231.983 174.552C232.261 174.77 232.485 174.722 232.811 174.664C233.173 174.596 233.463 174.232 233.561 173.886C233.776 173.125 233.958 172.399 233.885 171.609C233.801 170.703 232.709 170.31 232.202 171.136Z" fill="#006696"/>
<path d="M181.144 221.509C180.547 222.6 179.858 223.712 179.571 224.943C179.391 225.706 180.224 226.108 180.761 225.66C181.711 224.865 182.393 223.719 183.091 222.689C183.92 221.47 181.873 220.186 181.144 221.509Z" fill="#006696"/>
<path d="M207.206 221.385C206.293 223.1 204.72 225.084 204.788 227.112C204.802 227.531 205.255 227.856 205.623 227.611C207.269 226.523 207.953 224.101 208.796 222.349C209.319 221.259 207.783 220.302 207.206 221.385Z" fill="#006696"/>
<path d="M230.231 224.024C230.114 225.27 229.876 226.479 229.493 227.666C229.206 228.555 228.751 229.294 229.036 230.222C229.101 230.435 229.349 230.636 229.575 230.539C231.534 229.713 231.716 225.931 231.856 224.024C231.935 222.937 230.331 222.958 230.231 224.024Z" fill="#006696"/>
<path d="M218.776 205.535C218.687 207.34 218.055 209.016 217.938 210.795C217.891 211.524 218.802 211.616 219.143 211.134C220.214 209.612 220.349 207.364 220.417 205.535C220.457 204.437 218.827 204.445 218.776 205.535Z" fill="#006696"/>
<path d="M276.428 208.587C275.8 210.145 274.892 212.304 275.606 213.934C275.861 214.511 276.622 214.37 276.909 213.934C277.383 213.217 277.336 212.524 277.492 211.679C277.656 210.795 277.917 209.942 278.218 209.099C278.641 207.921 276.876 207.473 276.428 208.587Z" fill="#006696"/>
<path d="M301.571 203.877C301.496 204.982 301.419 206.087 301.344 207.189C301.286 208.107 301.169 208.662 301.841 209.309C302.026 209.486 302.381 209.585 302.605 209.41C303.973 208.347 303.475 205.495 303.543 203.877C303.597 202.552 301.659 202.574 301.571 203.877Z" fill="#006696"/>
<path d="M320.257 194.784C320.087 196.065 319.802 197.296 319.403 198.519C319.053 199.585 318.53 200.498 318.74 201.639C318.833 202.137 319.417 202.288 319.8 202.084C321.819 201.009 322.01 197.129 322.13 195.046C322.19 193.953 320.404 193.672 320.257 194.784Z" fill="#006696"/>
<path d="M144.169 247.044C143.48 248.236 142.819 249.43 142.201 250.663C141.671 251.717 141.115 252.579 141.344 253.773C141.458 254.374 142.149 254.548 142.609 254.309C143.683 253.751 144.017 252.494 144.488 251.411C145.004 250.222 145.474 249.025 145.926 247.812C146.328 246.734 144.712 246.104 144.169 247.044Z" fill="#006696"/>
<path d="M167.598 240.033C167.647 241.63 167.017 243.175 167.129 244.733C167.183 245.47 168.138 246.088 168.686 245.404C169.926 243.859 169.713 241.649 169.422 239.779C169.253 238.701 167.563 238.962 167.598 240.033Z" fill="#006696"/>
<path d="M190.43 241.908C189.772 243.49 188.805 245.196 188.81 246.96C188.812 247.708 189.688 248.052 190.194 247.556C191.366 246.415 191.868 244.656 192.491 243.159C193.091 241.71 191.037 240.445 190.43 241.908Z" fill="#006696"/>
<path d="M152.426 264.046C152.141 265.221 151.782 266.369 151.275 267.464C150.864 268.353 150.269 269.167 150.309 270.182C150.334 270.831 150.95 271.161 151.492 270.887C153.313 269.976 153.934 266.437 154.279 264.577C154.511 263.332 152.732 262.784 152.426 264.046Z" fill="#006696"/>
<path d="M178.198 267.627C178.072 269.194 177.484 270.977 177.88 272.52C177.995 272.956 178.63 273.201 178.933 272.809C179.998 271.43 179.986 269.325 180.138 267.627C180.25 266.343 178.301 266.34 178.198 267.627Z" fill="#006696"/>
<path d="M159.449 288.602C159.449 289.573 159.323 290.497 159.06 291.432C158.824 292.26 158.471 292.953 158.548 293.837C158.609 294.555 159.3 295.071 159.956 294.678C161.803 293.569 161.889 290.547 161.686 288.602C161.536 287.148 159.449 287.073 159.449 288.602Z" fill="#006696"/>
<path d="M213.848 246.102C213.845 247.864 213.467 250.088 214.254 251.696C214.473 252.144 215.178 252.144 215.398 251.696C216.182 250.09 215.806 247.859 215.804 246.102C215.801 244.796 213.85 244.794 213.848 246.102Z" fill="#006696"/>
<path d="M198.149 273.154C198.193 274.186 198.067 275.133 197.773 276.122C197.53 276.943 197.199 277.575 197.444 278.426C197.568 278.859 197.997 279.114 198.422 279.002C200.509 278.462 200.672 274.94 200.535 273.154C200.413 271.584 198.079 271.545 198.149 273.154Z" fill="#006696"/>
<path d="M188.49 302.398C188.397 303.748 187.657 306.316 188.826 307.273C189.045 307.452 189.319 307.53 189.578 307.372C190.96 306.534 190.502 303.842 190.579 302.398C190.652 301.001 188.588 301.018 188.49 302.398Z" fill="#006696"/>
<path d="M222.068 297.984C222.007 299.428 221.671 300.994 222.282 302.326C222.567 302.947 223.573 302.947 223.858 302.326C224.465 301.006 224.134 299.419 224.073 297.984C224.017 296.644 222.124 296.642 222.068 297.984Z" fill="#006696"/>
<path d="M232.763 263.132C233.143 264.7 232.987 266.275 233.288 267.825C233.43 268.569 234.474 268.489 234.661 267.825C235.109 266.238 234.584 264.274 234.105 262.75C233.83 261.87 232.541 262.224 232.763 263.132Z" fill="#006696"/>
<path d="M252.589 237.549C252.502 239.245 252.208 241.069 252.666 242.729C252.89 243.541 253.866 243.412 254.136 242.729C254.762 241.135 254.65 239.238 254.743 237.549C254.825 236.11 252.661 236.113 252.589 237.549Z" fill="#006696"/>
<path d="M285.439 226.233C285.416 227.295 285.353 228.351 285.274 229.412C285.201 230.359 285.01 231.309 285.278 232.23C285.449 232.818 286.189 232.896 286.504 232.394C287.505 230.803 287.284 228.067 287.298 226.233C287.307 224.991 285.467 224.993 285.439 226.233Z" fill="#006696"/>
<path d="M269.654 254.934C269.636 256.509 269.208 258.643 270.009 260.034C270.31 260.557 271.053 260.557 271.356 260.034C272.157 258.639 271.727 256.511 271.709 254.934C271.695 253.563 269.668 253.561 269.654 254.934Z" fill="#006696"/>
<path d="M308.364 230.672C308.012 232.675 307.087 236.023 308.171 237.871C308.416 238.287 308.985 238.278 309.23 237.871C309.753 237.011 309.721 236.054 309.772 235.056C309.835 233.756 309.966 232.467 310.157 231.183C310.332 229.982 308.584 229.44 308.364 230.672Z" fill="#006696"/>
<path d="M287.393 264.869C287.295 265.874 287.143 266.863 286.914 267.846C286.716 268.704 286.366 269.498 286.452 270.39C286.531 271.191 287.516 271.841 288.135 271.112C289.424 269.6 289.484 266.807 289.613 264.869C289.713 263.377 287.533 263.413 287.393 264.869Z" fill="#006696"/>
<path d="M287.393 264.869C287.029 265.983 286.683 267.102 286.373 268.231C286.095 269.237 285.773 270.126 286.179 271.133C286.405 271.693 287.01 271.935 287.482 271.489C288.24 270.772 288.341 269.876 288.558 268.856C288.803 267.708 289.078 266.57 289.375 265.436C289.723 264.101 287.815 263.578 287.393 264.869Z" fill="#006696"/>
<path d="M339.774 154.343C341.768 153.612 343.463 152.575 344.968 151.02C346.052 149.901 348.013 147.83 347.55 146.087C347.483 145.827 347.189 145.626 346.929 145.721C345.505 146.242 344.698 148.266 343.715 149.383C342.436 150.839 340.911 152.159 339.321 153.229C338.789 153.585 339.116 154.586 339.774 154.343Z" fill="#006696"/>
<path d="M334.733 17.7476C336.883 16.0982 339.117 14.5965 341.557 13.446C344.246 12.1744 347.155 11.6972 349.861 10.5516C350.584 10.244 350.507 9.17343 349.674 9.1153C344.024 8.71081 337.848 12.8187 334.07 16.8563C333.655 17.2995 334.215 18.1448 334.733 17.7476Z" fill="#006696"/>
<path d="M335.579 23.3252C342.739 22.8043 351.955 22.0169 357.976 17.6609C358.466 17.3072 358.149 16.6167 357.586 16.7015C354.126 17.2176 350.802 18.7947 347.408 19.6911C343.514 20.7232 339.583 21.3652 335.579 21.7432C334.615 21.8352 334.592 23.3979 335.579 23.3252Z" fill="#006696"/>
<path d="M337.479 30.637C347.678 32.3743 359.427 32.4494 368.893 27.5549C369.61 27.1842 369.082 26.1375 368.375 26.2828C357.958 28.4102 348.632 30.5158 337.927 28.9433C336.869 28.7882 336.395 30.4528 337.479 30.637Z" fill="#006696"/>
<path d="M355.235 306.837L310.311 327.395L326.241 377.426L381.999 378C381.999 378 369.111 332.353 355.235 306.837Z" fill="#FFCCC3"/>
<mask id="mask0_6444_16316" style="mask-type:luminance" maskUnits="userSpaceOnUse" x="150" y="160" width="5" height="4">
<path d="M150.807 160.811H154.544V163.49H150.807V160.811Z" fill="white"/>
</mask>
<g mask="url(#mask0_6444_16316)">
<g opacity="0.220001">
<path d="M153.303 160.819C152.423 160.894 151.753 160.857 151.073 161.48C150.718 161.804 150.718 162.499 151.073 162.824C151.753 163.449 152.423 163.41 153.303 163.487C154.955 163.628 154.96 160.676 153.303 160.819Z" fill="#303030"/>
</g>
</g>
<mask id="mask1_6444_16316" style="mask-type:luminance" maskUnits="userSpaceOnUse" x="140" y="173" width="3" height="4">
<path d="M140.178 173.938H142.69V176.634H140.178V173.938Z" fill="white"/>
</mask>
<g mask="url(#mask1_6444_16316)">
<g opacity="0.220001">
<path d="M141.434 176.636C143.106 176.636 143.108 173.94 141.434 173.94C139.763 173.94 139.758 176.636 141.434 176.636Z" fill="#303030"/>
</g>
</g>
<mask id="mask2_6444_16316" style="mask-type:luminance" maskUnits="userSpaceOnUse" x="316" y="124" width="4" height="4">
<path d="M316.747 124.81H319.019V127.249H316.747V124.81Z" fill="white"/>
</mask>
<g mask="url(#mask2_6444_16316)">
<g opacity="0.220001">
<path d="M317.885 127.251C319.397 127.251 319.4 124.81 317.885 124.81C316.372 124.81 316.367 127.251 317.885 127.251Z" fill="#303030"/>
</g>
</g>
<mask id="mask3_6444_16316" style="mask-type:luminance" maskUnits="userSpaceOnUse" x="311" y="111" width="3" height="4">
<path d="M311.182 111.646H313.507V114.143H311.182V111.646Z" fill="white"/>
</mask>
<g mask="url(#mask3_6444_16316)">
<g opacity="0.220001">
<path d="M312.345 114.143C313.892 114.143 313.897 111.646 312.345 111.646C310.797 111.646 310.792 114.143 312.345 114.143Z" fill="#303030"/>
</g>
</g>
<mask id="mask4_6444_16316" style="mask-type:luminance" maskUnits="userSpaceOnUse" x="346" y="337" width="4" height="3">
<path d="M346.75 337.365H349.154V339.947H346.75V337.365Z" fill="white"/>
</mask>
<g mask="url(#mask4_6444_16316)">
<g opacity="0.220001">
<path d="M347.951 339.947C349.553 339.947 349.555 337.365 347.951 337.365C346.348 337.365 346.348 339.947 347.951 339.947Z" fill="#303030"/>
</g>
</g>
<mask id="mask5_6444_16316" style="mask-type:luminance" maskUnits="userSpaceOnUse" x="357" y="348" width="4" height="4">
<path d="M357.931 348.971H360.126V351.328H357.931V348.971Z" fill="white"/>
</mask>
<g mask="url(#mask5_6444_16316)">
<g opacity="0.220001">
<path d="M359.029 351.329C360.49 351.329 360.493 348.973 359.029 348.973C357.568 348.973 357.565 351.329 359.029 351.329Z" fill="#303030"/>
</g>
</g>
<mask id="mask6_6444_16316" style="mask-type:luminance" maskUnits="userSpaceOnUse" x="354" y="329" width="1" height="1">
<path d="M354.224 329.565H354.336V329.687H354.224V329.565Z" fill="white"/>
</mask>
<g mask="url(#mask6_6444_16316)">
<g opacity="0.220001">
<path d="M354.28 329.685C354.354 329.685 354.354 329.564 354.28 329.564C354.206 329.564 354.206 329.685 354.28 329.685Z" fill="#303030"/>
</g>
</g>
</svg>
